<svg xmlns="http://www.w3.org/2000/svg" width="18" height="18" viewBox="0 0 48 48" aria-hidden="true">
  <path fill="#FFC107" d="M43.611 20.083H42V20H24v8h11.303C33.877 32.91 29.345 36 24 36c-6.627 0-12-5.373-12-12s5.373-12 12-12c3.059 0 5.842 1.156 7.957 3.043l5.657-5.657C34.523 6.053 29.523 4 24 4 12.954 4 4 12.954 4 24s8.954 20 20 20c10.493 0 19.104-8.044 19.104-20 0-1.34-.147-2.651-.493-3.917z"/>
  <path fill="#FF3D00" d="M6.306 14.691l6.571 4.818C14.402 16.108 18.853 12 24 12c3.059 0 5.842 1.156 7.957 3.043l5.657-5.657C34.523 6.053 29.523 4 24 4 16.318 4 9.688 8.337 6.306 14.691z"/>
  <path fill="#4CAF50" d="M24 44c5.273 0 10.09-1.987 13.736-5.228l-6.342-5.356C29.377 35.91 25.345 38 20 38c-5.09 0-9.44-3.025-11.34-7.36l-6.5 5.01C5.46 41.77 14.014 44 24 44z"/>
  <path fill="#1976D2" d="M43.611 20.083H42V20H24v8h11.303c-1.065 3.109-3.345 5.558-6.609 7.085l6.342 5.356C37.32 42.27 44 36 44 24c0-1.34-.147-2.651-.389-3.917z"/>
</svg>
